<svg width="712.933349609375px" height="121.33333129882813px" xmlns="http://www.w3.org/2000/svg" viewBox="-106.4666748046875 14.333334350585936 712.933349609375 121.33333129882813" style="background: rgba(0, 0, 0, 0);" preserveAspectRatio="xMidYMid"><defs><filter id="editing-hole" x="-100%" y="-100%" width="300%" height="300%"><feFlood flood-color="#000" result="black"></feFlood><feMorphology operator="dilate" radius="2" in="SourceGraphic" result="erode"></feMorphology><feGaussianBlur in="erode" stdDeviation="4" result="blur"></feGaussianBlur><feOffset in="blur" dx="2" dy="2" result="offset"></feOffset><feComposite operator="atop" in="offset" in2="black" result="merge"></feComposite><feComposite operator="in" in="merge" in2="SourceGraphic" result="inner-shadow"></feComposite></filter></defs><g filter="url(#editing-hole)"><g transform="translate(-4.619978815317154, 99)"><path d="M30.21-33.92L30.21-33.92L30.21-33.92Q25.02-33.92 21.25-35.65L21.25-35.65L19.20-25.28L31.55-25.28L31.55-25.28Q31.55-21.89 29.86-19.74L29.86-19.74L29.86-19.74Q28.16-17.60 25.09-17.60L25.09-17.60L25.09-17.60Q21.76-17.60 18.69-18.82L18.69-18.82L18.69-18.82Q18.05-19.07 17.98-19.14L17.98-19.14L14.34 0L0.38 0L8.51-42.24L37.06-42.24L37.06-42.24Q37.06-38.34 35.23-36.13L35.23-36.13L35.23-36.13Q33.41-33.92 30.21-33.92ZM50.82-3.52L50.82-3.52L50.82-3.52Q48.83 1.28 42.50 1.28L42.50 1.28L42.50 1.28Q39.23 1.28 37.18-0.96L37.18-0.96L37.18-0.96Q35.46-2.94 35.46-4.93L35.46-4.93L35.46-4.93Q35.46-10.11 37.82-20.22L37.82-20.22L40.19-32.64L53.18-33.92L49.28-13.70L49.28-13.70Q48.19-8.96 48.19-7.30L48.19-7.30L48.19-7.30Q48.19-3.65 50.82-3.52ZM41.34-41.54L41.34-41.54L41.34-41.54Q41.34-44.03 43.42-45.38L43.42-45.38L43.42-45.38Q45.50-46.72 48.51-46.72L48.51-46.72L48.51-46.72Q51.52-46.72 53.34-45.38L53.34-45.38L53.34-45.38Q55.17-44.03 55.17-41.54L55.17-41.54L55.17-41.54Q55.17-39.04 53.15-37.76L53.15-37.76L53.15-37.76Q51.14-36.48 48.13-36.48L48.13-36.48L48.13-36.48Q45.12-36.48 43.23-37.76L43.23-37.76L43.23-37.76Q41.34-39.04 41.34-41.54ZM83.33 1.28L83.33 1.28L83.33 1.28Q75.58 1.28 75.58-4.74L75.58-4.74L75.58-4.74Q75.65-6.40 76.16-9.22L76.16-9.22L77.31-15.10L77.31-15.10Q79.04-23.42 79.04-25.28L79.04-25.28L79.04-25.28Q79.04-28.99 76.86-28.99L76.86-28.99L76.86-28.99Q73.22-28.99 71.30-19.46L71.30-19.46L67.52 0L54.66 1.28L61.31-32.70L71.81-33.92L70.78-27.65L70.78-27.65Q73.79-33.92 83.01-33.92L83.01-33.92L83.01-33.92Q87.49-33.92 89.38-32.03L89.38-32.03L89.38-32.03Q91.26-30.14 91.26-25.92L91.26-25.92L91.26-25.92Q91.26-21.95 89.22-12.67L89.22-12.67L89.22-12.67Q88.26-8.51 88.26-6.94L88.26-6.94L88.26-6.94Q88.26-5.38 89.12-4.48L89.12-4.48L89.12-4.48Q89.98-3.58 91.26-3.46L91.26-3.46L91.26-3.46Q90.62-1.28 88.42 0L88.42 0L88.42 0Q86.21 1.28 83.33 1.28ZM116.54-33.92L116.54-33.92L116.54-33.92Q118.85-33.92 120.64-33.41L120.64-33.41L120.64-33.41Q120.70-33.66 120.83-34.37L120.83-34.37L121.15-36.35L121.15-36.35Q121.41-37.63 121.79-39.74L121.79-39.74L122.82-44.80L135.55-46.08L128.45-8.96L128.45-8.96Q128.38-8.58 128.38-7.94L128.38-7.94L128.38-6.91L128.38-6.91Q128.38-5.50 129.09-4.45L129.09-4.45L129.09-4.45Q129.79-3.39 130.94-3.39L130.94-3.39L130.94-3.39Q129.66-0.38 125.76 0.90L125.76 0.90L125.76 0.90Q124.42 1.28 122.53 1.28L122.53 1.28L122.53 1.28Q120.64 1.28 118.91 0.29L118.91 0.29L118.91 0.29Q117.18-0.70 116.67-2.37L116.67-2.37L116.67-2.37Q115.65-0.70 113.60 0.29L113.60 0.29L113.60 0.29Q111.55 1.28 108.58 1.28L108.58 1.28L108.58 1.28Q105.60 1.28 103.14 0.51L103.14 0.51L103.14 0.51Q100.67-0.26 99.14-1.92L99.14-1.92L99.14-1.92Q96.32-5.18 96.32-12.61L96.32-12.61L96.32-12.61Q96.32-22.21 101.95-28.03L101.95-28.03L101.95-28.03Q107.58-33.92 116.54-33.92ZM116.10-30.08L116.10-30.08L116.10-30.08Q113.73-30.08 112.45-27.52L112.45-27.52L112.45-27.52Q111.17-24.96 109.86-18.62L109.86-18.62L109.86-18.62Q108.54-12.29 108.54-6.59L108.54-6.59L108.54-6.59Q108.54-2.69 110.85-2.69L110.85-2.69L110.85-2.69Q112.90-2.69 114.34-4.74L114.34-4.74L114.34-4.74Q115.78-6.78 116.35-10.18L116.35-10.18L119.81-28.93L119.81-28.93Q118.46-30.08 116.10-30.08ZM137.60-9.47L137.60-9.47L137.60-9.47Q137.60-11.97 138.24-15.17L138.24-15.17L143.42-42.24L157.57-42.24L152.45-14.98L152.45-14.98Q151.87-11.97 151.87-9.76L151.87-9.76L151.87-9.76Q151.87-7.55 152.80-6.40L152.80-6.40L152.80-6.40Q153.73-5.25 155.46-5.25L155.46-5.25L155.46-5.25Q157.18-5.25 158.27-5.70L158.27-5.70L158.27-5.70Q159.36-6.14 160.26-7.23L160.26-7.23L160.26-7.23Q161.98-9.41 163.07-14.98L163.07-14.98L168.26-42.24L177.92-42.24L172.80-15.04L172.80-15.04Q171.01-5.95 166.08-2.30L166.08-2.30L166.08-2.30Q161.28 1.28 151.81 1.28L151.81 1.28L151.81 1.28Q144.70 1.28 140.93-1.79L140.93-1.79L140.93-1.79Q137.60-4.48 137.60-9.47ZM199.23-17.98L199.23-17.98L199.23-17.98Q201.54-22.08 201.54-26.24L201.54-26.24L201.54-26.24Q201.54-28.99 199.55-28.99L199.55-28.99L199.55-28.99Q198.02-28.99 196.42-26.37L196.42-26.37L196.42-26.37Q194.75-23.74 194.24-20.35L194.24-20.35L190.91 0L177.66 1.28L184.19-32.64L194.75-33.92L193.60-27.46L193.60-27.46Q196.74-33.92 203.78-33.92L203.78-33.92L203.78-33.92Q207.49-33.92 209.50-32L209.50-32L209.50-32Q211.52-30.08 211.52-26.14L211.52-26.14L211.52-26.14Q211.52-22.21 208.93-19.71L208.93-19.71L208.93-19.71Q206.34-17.22 201.92-17.22L201.92-17.22L201.92-17.22Q200-17.22 199.23-17.98ZM217.98 0L210.62 0L222.21-42.24L235.58-42.24L238.53-18.11L250.43-42.24L261.63-42.24L262.78-10.62L262.78-10.62Q263.04-4.35 266.11-2.43L266.11-2.43L266.11-2.43Q265.41-1.15 263.36 0.06L263.36 0.06L263.36 0.06Q261.31 1.28 258.59 1.28L258.59 1.28L258.59 1.28Q255.87 1.28 254.27 0.51L254.27 0.51L254.27 0.51Q252.67-0.26 251.78-1.54L251.78-1.54L251.78-1.54Q250.18-3.84 250.18-8.26L250.18-8.26L250.18-28.03L237.57 0L229.63 0L225.15-28.74L217.98 0ZM294.78-10.82L294.78-10.82L294.78-10.82Q296.38-9.73 296.38-7.33L296.38-7.33L296.38-7.33Q296.38-4.93 295.17-3.39L295.17-3.39L295.17-3.39Q293.95-1.86 291.97-0.83L291.97-0.83L291.97-0.83Q287.87 1.28 283.46 1.28L283.46 1.28L283.46 1.28Q279.04 1.28 276.45 0.32L276.45 0.32L276.45 0.32Q273.86-0.64 272.13-2.43L272.13-2.43L272.13-2.43Q268.74-5.82 268.74-12.03L268.74-12.03L268.74-12.03Q268.74-21.70 273.98-27.58L273.98-27.58L273.98-27.58Q279.62-33.92 289.41-33.92L289.41-33.92L289.41-33.92Q295.49-33.92 298.50-31.36L298.50-31.36L298.50-31.36Q300.74-29.44 300.74-26.30L300.74-26.30L300.74-26.30Q300.74-15.04 281.28-15.04L281.28-15.04L281.28-15.04Q281.02-13.38 281.02-11.97L281.02-11.97L281.02-11.97Q281.02-9.02 282.34-7.90L282.34-7.90L282.34-7.90Q283.65-6.78 286.08-6.78L286.08-6.78L286.08-6.78Q288.51-6.78 291.10-7.90L291.10-7.90L291.10-7.90Q293.70-9.02 294.78-10.82ZM281.73-17.79L281.73-17.79L281.73-17.79Q286.27-17.79 288.90-20.61L288.90-20.61L288.90-20.61Q291.52-23.30 291.52-27.58L291.52-27.58L291.52-27.58Q291.52-29.06 290.98-29.86L290.98-29.86L290.98-29.86Q290.43-30.66 289.34-30.66L289.34-30.66L289.34-30.66Q288.26-30.66 287.33-30.24L287.33-30.24L287.33-30.24Q286.40-29.82 285.44-28.42L285.44-28.42L285.44-28.42Q283.07-25.22 281.73-17.79ZM334.34-26.62L334.34-26.62L334.34-26.62Q334.34-23.94 332.10-22.27L332.10-22.27L332.10-22.27Q329.86-20.61 326.21-20.61L326.21-20.61L326.21-20.61Q324.67-20.61 323.78-21.06L323.78-21.06L323.78-21.06Q324.48-22.72 324.70-24.80L324.70-24.80L324.70-24.80Q324.93-26.88 324.93-27.46L324.93-27.46L324.93-27.46Q324.93-30.14 323.07-30.14L323.07-30.14L323.07-30.14Q321.79-30.14 320.35-28.54L320.35-28.54L320.35-28.54Q318.91-26.94 317.70-24.45L317.70-24.45L317.70-24.45Q315.01-18.69 315.01-12.86L315.01-12.86L315.01-12.86Q315.01-9.66 316.22-8.22L316.22-8.22L316.22-8.22Q317.44-6.78 320.13-6.78L320.13-6.78L320.13-6.78Q323.84-6.78 326.78-9.86L326.78-9.86L326.78-9.86Q327.62-10.82 328.06-11.90L328.06-11.90L328.06-11.90Q330.50-10.62 330.50-7.10L330.50-7.10L330.50-7.10Q330.50-3.52 326.53-1.15L326.53-1.15L326.53-1.15Q322.43 1.28 315.90 1.28L315.90 1.28L315.90 1.28Q302.91 1.28 302.91-12.48L302.91-12.48L302.91-12.48Q302.91-22.53 308.61-28.29L308.61-28.29L308.61-28.29Q314.11-33.92 324.22-33.92L324.22-33.92L324.22-33.92Q334.34-33.92 334.34-26.62ZM368.26-7.10L368.26-7.10L368.26-7.10Q368.26-4.29 371.14-3.46L371.14-3.46L371.14-3.46Q370.43-1.09 367.68 0.19L367.68 0.19L367.68 0.19Q365.38 1.28 362.85 1.28L362.85 1.28L362.85 1.28Q360.32 1.28 359.01 0.61L359.01 0.61L359.01 0.61Q357.70-0.06 356.99-1.15L356.99-1.15L356.99-1.15Q355.84-2.82 355.84-5.95L355.84-5.95L355.84-5.95Q355.84-7.81 356.86-12.93L356.86-12.93L357.76-17.79L357.76-17.79Q358.85-23.36 358.85-25.41L358.85-25.41L358.85-25.41Q358.85-28.99 356.86-28.99L356.86-28.99L356.86-28.99Q354.37-28.99 352.77-25.34L352.77-25.34L352.77-25.34Q352.13-23.94 351.68-21.82L351.68-21.82L347.33 0L334.46 1.28L343.49-44.80L356.35-46.08L355.84-43.52L355.84-43.52Q354.05-33.66 352.51-30.34L352.51-30.34L352.51-30.34Q356.10-33.92 362.69-33.92L362.69-33.92L362.69-33.92Q369.66-33.92 370.94-29.31L370.94-29.31L370.94-29.31Q371.39-27.84 371.39-26.56L371.39-26.56L371.39-26.56Q371.39-25.28 371.30-24.29L371.30-24.29L371.30-24.29Q371.20-23.30 370.88-21.50L370.88-21.50L370.05-16.90L368.58-9.66L368.58-9.66Q368.26-8.19 368.26-7.10ZM379.10-1.92L379.10-1.92L379.10-1.92Q377.60-3.58 376.93-6.21L376.93-6.21L376.93-6.21Q376.26-8.83 376.26-13.12L376.26-13.12L376.26-13.12Q376.26-17.41 377.73-21.31L377.73-21.31L377.73-21.31Q379.20-25.22 381.89-28.03L381.89-28.03L381.89-28.03Q387.39-33.92 396.48-33.92L396.48-33.92L396.48-33.92Q399.74-33.92 402.11-32.83L402.11-32.83L413.06-33.92L408.32-8.96L408.32-8.96Q408.13-8.19 408.13-6.78L408.13-6.78L408.13-6.78Q408.13-5.38 408.99-4.48L408.99-4.48L408.99-4.48Q409.86-3.58 411.14-3.46L411.14-3.46L411.14-3.46Q410.50-1.28 408.16 0L408.16 0L408.16 0Q405.82 1.28 403.20 1.28L403.20 1.28L403.20 1.28Q400.58 1.28 398.82 0.29L398.82 0.29L398.82 0.29Q397.06-0.70 396.54-2.37L396.54-2.37L396.54-2.37Q395.52-0.77 393.34 0.26L393.34 0.26L393.34 0.26Q391.17 1.28 388.26 1.28L388.26 1.28L388.26 1.28Q385.34 1.28 382.98 0.51L382.98 0.51L382.98 0.51Q380.61-0.26 379.10-1.92ZM392.61-27.90L392.61-27.90L392.61-27.90Q391.87-26.75 391.23-24.80L391.23-24.80L391.23-24.80Q390.59-22.85 389.54-17.63L389.54-17.63L389.54-17.63Q388.48-12.42 388.48-8.70L388.48-8.70L388.48-8.70Q388.48-4.99 389.06-3.90L389.06-3.90L389.06-3.90Q389.63-2.82 390.66-2.82L390.66-2.82L390.66-2.82Q392.70-2.82 394.21-4.77L394.21-4.77L394.21-4.77Q395.71-6.72 396.29-10.18L396.29-10.18L399.68-28.93L399.68-28.93Q398.34-30.08 396.77-30.08L396.77-30.08L396.77-30.08Q395.20-30.08 394.27-29.57L394.27-29.57L394.27-29.57Q393.34-29.06 392.61-27.90ZM443.58 1.28L443.58 1.28L443.58 1.28Q435.84 1.28 435.84-4.74L435.84-4.74L435.84-4.74Q435.90-6.40 436.42-9.22L436.42-9.22L437.57-15.10L437.57-15.10Q439.30-23.42 439.30-25.28L439.30-25.28L439.30-25.28Q439.30-28.99 437.12-28.99L437.12-28.99L437.12-28.99Q433.47-28.99 431.55-19.46L431.55-19.46L427.78 0L414.91 1.28L421.57-32.70L432.06-33.92L431.04-27.65L431.04-27.65Q434.05-33.92 443.26-33.92L443.26-33.92L443.26-33.92Q447.74-33.92 449.63-32.03L449.63-32.03L449.63-32.03Q451.52-30.14 451.52-25.92L451.52-25.92L451.52-25.92Q451.52-21.95 449.47-12.67L449.47-12.67L449.47-12.67Q448.51-8.51 448.51-6.94L448.51-6.94L448.51-6.94Q448.51-5.38 449.38-4.48L449.38-4.48L449.38-4.48Q450.24-3.58 451.52-3.46L451.52-3.46L451.52-3.46Q450.88-1.28 448.67 0L448.67 0L448.67 0Q446.46 1.28 443.58 1.28ZM472.00-3.52L472.00-3.52L472.00-3.52Q470.02 1.28 463.68 1.28L463.68 1.28L463.68 1.28Q460.42 1.28 458.37-0.96L458.37-0.96L458.37-0.96Q456.64-2.94 456.64-4.93L456.64-4.93L456.64-4.93Q456.64-10.11 459.01-20.22L459.01-20.22L461.38-32.64L474.37-33.92L470.46-13.70L470.46-13.70Q469.38-8.96 469.38-7.30L469.38-7.30L469.38-7.30Q469.38-3.65 472.00-3.52ZM462.53-41.54L462.53-41.54L462.53-41.54Q462.53-44.03 464.61-45.38L464.61-45.38L464.61-45.38Q466.69-46.72 469.70-46.72L469.70-46.72L469.70-46.72Q472.70-46.72 474.53-45.38L474.53-45.38L474.53-45.38Q476.35-44.03 476.35-41.54L476.35-41.54L476.35-41.54Q476.35-39.04 474.34-37.76L474.34-37.76L474.34-37.76Q472.32-36.48 469.31-36.48L469.31-36.48L469.31-36.48Q466.30-36.48 464.42-37.76L464.42-37.76L464.42-37.76Q462.53-39.04 462.53-41.54ZM508.86-26.62L508.86-26.62L508.86-26.62Q508.86-23.94 506.62-22.27L506.62-22.27L506.62-22.27Q504.38-20.61 500.74-20.61L500.74-20.61L500.74-20.61Q499.20-20.61 498.30-21.06L498.30-21.06L498.30-21.06Q499.01-22.72 499.23-24.80L499.23-24.80L499.23-24.80Q499.46-26.88 499.46-27.46L499.46-27.46L499.46-27.46Q499.46-30.14 497.60-30.14L497.60-30.14L497.60-30.14Q496.32-30.14 494.88-28.54L494.88-28.54L494.88-28.54Q493.44-26.94 492.22-24.45L492.22-24.45L492.22-24.45Q489.54-18.69 489.54-12.86L489.54-12.86L489.54-12.86Q489.54-9.66 490.75-8.22L490.75-8.22L490.75-8.22Q491.97-6.78 494.66-6.78L494.66-6.78L494.66-6.78Q498.37-6.78 501.31-9.86L501.31-9.86L501.31-9.86Q502.14-10.82 502.59-11.90L502.59-11.90L502.59-11.90Q505.02-10.62 505.02-7.10L505.02-7.10L505.02-7.10Q505.02-3.52 501.06-1.15L501.06-1.15L501.06-1.15Q496.96 1.28 490.43 1.28L490.43 1.28L490.43 1.28Q477.44 1.28 477.44-12.48L477.44-12.48L477.44-12.48Q477.44-22.53 483.14-28.29L483.14-28.29L483.14-28.29Q488.64-33.92 498.75-33.92L498.75-33.92L498.75-33.92Q508.86-33.92 508.86-26.62Z" fill="#ccc"></path></g></g><style>text {
  font-size: 64px;
  font-family: Arial Black;
  dominant-baseline: central;
  text-anchor: middle;
}</style></svg>